<?xml version="1.0" encoding="UTF-8"?><svg id="Layer_1" xmlns="http://www.w3.org/2000/svg" viewBox="0 0 838.62 162.3"><defs><style>.cls-1{fill:#040609;stroke:#1d1d1b;stroke-miterlimit:10;}.cls-2{fill:#0654f0;stroke-width:0px;}</style></defs><path class="cls-2" d="M382.9,21.96l-7.84,12.35h-32.83l-1.06,6.18h35.77l-7.68,11.57h-30.16l-3.05,17.39h-14.76l7.9-47.49h53.71Z"/><path class="cls-2" d="M446.48,41.27c0,19.52-12.92,28.96-39.53,28.96-20.52,0-30.88-6.39-30.88-20.16,0-19.52,12.92-28.89,39.53-28.89,20.51,0,30.88,6.32,30.88,20.09ZM431.71,42.76c0-7.67-5.4-9.23-18.31-9.23-19.09,0-22.57,2.91-22.57,15.12,0,7.67,5.47,9.23,18.24,9.23,19.09,0,22.64-2.98,22.64-15.12Z"/><path class="cls-2" d="M541.64,39.64c2.48,6.46,4.12,11,5.18,14.2,2.13-3.34,4.61-6.81,10.08-14.13l10.01-13.49c2.2-2.98,5.04-5.04,8.94-5.04,3.69,0,6.53,2.13,7.03,6.53l4.68,41.74h-14.62l-1.63-16.54c-.5-5.39-.78-9.23-.85-13.06-2.13,3.34-4.61,6.96-9.01,13.13l-8.45,11.93c-3.34,4.68-5.82,5.32-9.37,5.32s-5.82-.64-7.52-5.32l-4.26-12c-2.34-6.53-3.41-9.87-4.33-13.06-1.42,3.48-3.34,8.02-5.54,13.06l-7.38,16.54h-14.41l19.59-41.74c2.13-4.4,5.82-6.53,9.51-6.53s5.96,1.92,7.17,5.04l5.18,13.42Z"/><path class="cls-2" d="M609.89,69.45l11.07-12.21h11.86c2.91,0,6.17,0,8.45.14-.99-1.7-2.49-4.61-3.62-6.89l-6.31-12.56-27.82,31.51h-17.39l38.04-42.94c2.49-2.77,5.82-5.32,10.44-5.32s6.89,2.34,8.45,5.32l22.07,42.94h-55.22Z"/><path class="cls-2" d="M707.55,67.68l-24.49-26.12-4.9,27.9h-13.34l6.89-39.39c1.06-6.32,5.25-8.87,9.65-8.87,1.78,0,3.55.43,5.47,2.56l24.49,26.12,4.97-27.9h13.34l-7.03,39.32c-1.13,6.32-5.32,8.94-9.58,8.94-1.99,0-3.48-.43-5.46-2.56Z"/><path class="cls-2" d="M323.99,36.37c0-11.36-11.78-14.41-21.72-14.41h-15.51l-7.91,12.35h22.43c4.54,0,7.24,1.56,7.24,4.68,0,3.83-4.26,6.18-9.16,6.18h-27.47l-15.55,24.27h16.48l8.24-12.56h12.19l9.46,12.56h18.57l-7.17-9.23c-2.63-3.34-4.12-5.04-5.47-6.25,9.16-1.77,15.33-9.01,15.33-17.6Z"/><path class="cls-2" d="M505.94,36.37c0-11.36-11.78-14.41-21.72-14.41h-15.51l-7.91,12.35h22.43c4.54,0,7.24,1.56,7.24,4.68,0,3.83-4.26,6.18-9.16,6.18h-27.47l-15.55,24.27h16.48l8.24-12.56h12.19l9.46,12.56h18.57l-7.17-9.23c-2.63-3.34-4.12-5.04-5.47-6.25,9.16-1.77,15.33-9.01,15.33-17.6Z"/><path class="cls-1" d="M309.76,125.09l-10.21,16.09h-34.32c-18.65,0-31.05-11.79-31.05-27.59,0-20.58,18.74-34.99,41.59-34.99h41.85l-10.84,16.28h-33.78c-10.98,0-20.25,7.39-20.25,17.31,0,7.76,6.15,12.91,15.17,12.91h41.85Z"/><path class="cls-1" d="M376.51,125.09l-10.39,16.09h-57.08l10.62-62.58h18.38l-7.85,46.49h46.31Z"/><path class="cls-1" d="M457.54,113.87c-3.21,18.9-17.04,28.34-41.94,28.34s-36.94-7.48-36.94-22.45c0-1.87.18-3.84.54-5.89l5.98-35.27h18.47l-6.07,35.27c-.18,1.31-.26,2.43-.26,3.46,0,6.55,4.64,8.79,20.97,8.79,14.28,0,19.18-3.46,20.7-12.25l5.98-35.27h18.56l-5.98,35.27Z"/><path class="cls-1" d="M541.57,78.6l-10.47,16.28h-23.41l-7.85,46.31h-18.47l7.76-46.31h-26.39l10.47-16.28h68.36Z"/><path class="cls-1" d="M603.34,125.09l-10.21,16.09h-33.24c-18.65,0-31.05-11.79-31.05-27.59,0-20.58,18.74-34.99,41.59-34.99h40.22l-10.3,16.28h-32.7c-10.98,0-20.25,7.39-20.25,17.31,0,7.76,6.15,12.91,15.17,12.91h40.77Z"/><path class="cls-1" d="M676.18,141.18h-18.38l4.1-24.13h-35.6l-4.02,24.13h-18.56l10.62-62.58h18.47l-3.84,22.17h35.6l3.75-22.17h17.93l-10.07,62.58Z"/><path class="cls-2" d="M226.97,60.6c0,3.05-.31,5.98-.75,8.85h21.11l7.82-12.21h-28.35c.07,1.11.17,2.21.17,3.36Z"/><path class="cls-2" d="M204.52,21.96c5.81,3.27,10.6,7.42,14.23,12.35h51.08l7.91-12.35h-73.22Z"/><path class="cls-2" d="M225.99,50.78h33.29l6.91-10.79h-43.93c1.69,3.33,2.95,6.93,3.73,10.79Z"/><polygon class="cls-1" points="299.36 2.84 294.03 10.99 831.44 10.99 835.78 2.84 299.36 2.84"/><polygon class="cls-1" points="205.09 149.56 199.46 157.81 828.96 157.81 835.78 149.56 205.09 149.56"/><path class="cls-1" d="M812.72,103.58h-32.48c-3.84,0-5.71-1.03-5.71-3.56,0-3.74,2.14-5.15,7.14-5.15h43.82l10.3-16.28h-49.92c-20.88,0-29.18,9.63-29.18,22.36,0,9.07,6.07,15.06,19.63,15.06h32.57c3.75,0,5.62,1.22,5.62,3.74,0,3.65-2.14,5.33-7.14,5.33h-68.68l-10.33,16.09h74.82c21.24,0,29.36-9.82,29.36-23.39,0-9.35-6.87-14.22-19.81-14.22Z"/><polygon class="cls-2" points="774.36 69.45 827.96 69.45 835.78 57.24 782.2 57.24 774.36 69.45"/><polygon class="cls-2" points="797.01 34.17 828.76 34.17 836.58 21.96 804.84 21.96 797.01 34.17"/><polygon class="cls-2" points="785.68 51.81 828.76 51.81 836.58 39.6 793.52 39.6 785.68 51.81"/><path class="cls-2" d="M751.69,69.45h13.11l7.82-12.21h-18.8c-7.17,0-12.07-3.9-12.07-9.79,0-7.52,7.38-13.13,16.11-13.13h29.44l7.91-12.35h-35.15c-18.17,0-33.08,10.93-33.08,26.55,0,12,9.87,20.94,24.7,20.94Z"/><polygon class="cls-1" points="686.92 118.01 733.65 118.01 743.95 101.96 689.56 101.96 686.92 118.01"/><polygon class="cls-1" points="683.1 141.18 718.77 141.18 729.07 125.14 685.75 125.14 683.1 141.18"/><polygon class="cls-1" points="693.38 78.79 690.74 94.83 748.53 94.83 758.82 78.79 693.38 78.79"/><path class="cls-2" d="M166.6,22.01h-75.75l-20.04,31.23h93.64c10.41,0,15.97,4.49,15.97,11.49,0,9.33-7.89,15.97-20.82,15.97H53.18L3.7,157.78h40.16l29.86-46.4h76.92c41.63,0,67.65-21,67.65-50.79,0-22.97-18.31-38.58-51.68-38.58Z"/><polygon class="cls-1" points="103.15 2.84 97.92 10.99 284.62 10.99 289.85 2.84 103.15 2.84"/><polygon class="cls-1" points="57.05 149.56 56.48 149.56 56.28 150.77 57.05 149.56"/><polygon class="cls-1" points="52.63 157.78 189.99 157.78 195.6 149.56 57.91 149.56 52.63 157.78"/></svg>