<?xml version="1.0" encoding="utf-8"?>
<!-- Generator: Adobe Illustrator 28.3.0, SVG Export Plug-In . SVG Version: 6.00 Build 0)  -->
<svg version="1.1" id="Layer_1" xmlns="http://www.w3.org/2000/svg" xmlns:xlink="http://www.w3.org/1999/xlink" x="0px" y="0px"
	 viewBox="0 0 850.4 567.3" style="enable-background:new 0 0 850.4 567.3;" xml:space="preserve">
<style type="text/css">
	.st0{fill:#01070F;}
	.st1{fill:#0654F0;}
</style>
<path class="st0" d="M228.2,550.4H9l213.5-332.6h382.9c24.4,0,36.8-6.2,36.8-18.4c0-4-6.6-6.7-16.5-6.7H238.6L351.4,17h278
	c62.7,0,115.4,15.1,152.3,43.7c38.6,29.9,58.9,72.3,58.9,122.7c0,124.5-106.9,208.2-265.9,208.2H330.4L228.2,550.4L228.2,550.4z
	 M33,537.3h188l102.2-158.8h251.6c151.2,0,252.8-78.4,252.8-195.1c0-46.2-18.6-85-53.9-112.3c-34.6-26.8-84.5-41-144.3-41H358.5
	l-96,149.5h363.1c21.8,0,29.6,10.2,29.6,19.8c0,27.4-31.3,31.5-49.9,31.5H229.7L33,537.3L33,537.3z"/>
<path class="st1" d="M629.4,51.4H370.2l-68.6,106.8H622c35.6,0,54.6,15.3,54.6,39.3c0,31.9-27,54.6-71.2,54.6H241.3L72,516h137.4
	l102.1-158.8h263.2c142.4,0,231.5-71.8,231.5-173.8C806.2,104.8,743.6,51.4,629.4,51.4L629.4,51.4z"/>
</svg>
